<svg xmlns="http://www.w3.org/2000/svg" width="2400" height="600" viewBox="0 0 2400 600">
  <rect width="2400" height="600" fill="#F9F9F9"/>
  <path d="M2400 277.89c-16.89 14.57-37.36 29.71-55.68 36.26 0 0-53.23-45.16-63.58-42.96 -11.7 2.49-134.9 98.8-162.56 98.8 -27.66 0-109.14 20.47-217.19 36.94 -75.35 11.49-195.89 20.62-195.89 20.62l0.14 2.01H0V600h2400V277.89z" fill="#EBEFF9"/>
  <path d="M2400 362.39c-44.45 1-137.8 3.81-179.82 10.31 -56.2 8.68-158.02-97.69-215.56-91.11 -33.23 3.8-101.57 48.87-162.7 82.61C1768 405 1680 415 1550.01 417.97c-456.61 10.43-967.93-22.92-1151.94-38.8 -76.22-6.58-286.47-9.49-398.07-10.6v109.79c78.95-28.59 260.79-55.65 348.06-79.46 65.81-17.95 226.75 30.07 262.2 31.83C1276 463.77 1595 461 2029.11 436.02c48.3-2.78 186.44-20.58 221.04-14.42 48.31 8.6 110.9 30.92 149.85 45.94V362.39z" fill="#DEE5F5"/>
  <path d="M1319.98 112.77c-4.28-6.92 6.38-11.65 6.38-11.65s-4.71-2.57-0.39-6.68C1331.61 89.07 1338 97 1338 97s0.26-7.08 10.09-7.08 13.29 7.23 12.99 8.63c-0.31 1.41 4.22-4.21 6.53 2.17 2.31 6.39-5.11 7.22-5.11 7.22s5.21 5 2.3 8.63c-4.49 5.61-11.65 0.48-11.65 0.48s0 7.16-9.13 7.09c-6.07-0.04-7.57-7.66-7.57-7.66S1325.57 121.8 1319.98 112.77zM1914.03 127.02c0 0 2.77 14.09 14 14.17 16.88 0.12 16.88-13.11 16.88-13.11s13.23 9.49 21.55-0.9c5.39-6.72-4.25-15.97-4.25-15.97s13.72-1.55 9.45-13.36c-4.27-11.81-12.66-1.42-12.08-4.02 0.57-2.6-5.85-15.96-24.02-15.96 -18.17 0-18.65 13.09-18.65 13.09s-11.81-14.67-22.26-4.73c-7.99 7.6 0.73 12.35 0.73 12.35s-19.72 8.76-11.79 21.55C1893.91 136.82 1914.03 127.02 1914.03 127.02zM2157.97 223.56c0 0 1.5 7.62 7.57 7.66 9.13 0.06 9.13-7.09 9.13-7.09s7.16 5.13 11.65-0.48c2.91-3.64-2.3-8.63-2.3-8.63s7.42-0.84 5.11-7.22c-2.31-6.39-6.84-0.77-6.53-2.17 0.31-1.41-3.16-8.63-12.99-8.63 -9.82 0-10.09 7.08-10.09 7.08s-6.39-7.93-12.04-2.56c-4.32 4.11 0.39 6.68 0.39 6.68s-10.66 4.73-6.38 11.65C2147.1 228.86 2157.97 223.56 2157.97 223.56zM417.66 117.36c0 0-9.89 5.51-0.82 14.33 11.85 11.52 21.99-8.82 21.99-8.82s3.81 18.52 24.4 18.52 27.88-15.5 27.23-18.52c-0.65-3.01 8.86 9.04 13.7-4.66 4.84-13.7-10.72-15.49-10.72-15.49S504.37 92 498.27 84.2c-9.43-12.04-24.43-1.04-24.43-1.04s0-15.35-19.14-15.21c-12.72 0.09-15.87 18.09-15.87 18.09s-22.81-13.03-34.53 6.32C395.31 107.21 417.66 117.36 417.66 117.36zM2250.15 421.6c-34.6-6.16-172.74 11.64-221.04 14.42 -262.63 15.11-483.13 22.1-763.76 17.94 -10.41 3.27-37.46 9.81-28.67 12.43 10.75 3.21 34.54 3.7 34.68 10.82 0.04 1.92-14.48 12.43-21.62 17.14 -1.47 0.97-1.44 2.28-0.5 3.76 152.54-1.18 428.66-16.87 499.1-18.47 266.3-6.05 522.04 14.69 651.67 27.7v-39.79C2361.04 452.52 2298.46 430.2 2250.15 421.6zM1787 529c-58.85 1.12-507.29 20-542 20 -34.71 0-411.84-18.61-496.82-25.85C676.13 517.01 156.5 551.78 0 562.51V600h2400v-37.65C2273.1 549.23 2020.85 524.53 1787 529zM1157 495c8.23 1.35 21.07 2.23 37.48 2.71 -1.96-3.43 7.27-10.32 17.89-13.93 11.83-4.02 7.67-10.31-12.22-15.19 -15.7-3.86 16.01-11.97 30.04-15.21 -174.78-3.11-373.62-10.43-619.94-22.66 -35.45-1.76-196.39-49.78-262.2-31.83C260.79 422.7 78.95 449.77 0 478.36v24.21c153.46-6.68 577.27-25.37 619-29.57C670.06 467.85 1084.52 483.09 1157 495zM194.14 256.26c0 0-5.92 3.3-0.49 8.58 7.1 6.9 13.17-5.28 13.17-5.28s2.28 11.09 14.62 11.09 16.7-9.28 16.31-11.09c-0.39-1.81 5.31 5.42 8.21-2.79 2.9-8.21-6.42-9.28-6.42-9.28s6.55-6.42 2.89-11.09c-5.65-7.21-14.63-0.62-14.63-0.62s0-9.19-11.47-9.11c-7.62 0.06-9.51 10.84-9.51 10.84s-13.66-7.81-20.69 3.79C180.74 250.18 194.14 256.26 194.14 256.26z" fill="#D2DCF1"/>
  <path d="M926.49 513.05c-0.49 7.1-6.69 12.48-13.8 11.99 -7.1-0.49-12.48-6.68-11.99-13.78 0.49-7.11 6.68-12.5 13.78-12C921.59 499.75 926.98 505.94 926.49 513.05zM1011.81 504.69l0.19 15.95 -12.1-0.84 -1.01-0.07c0.08-0.54 0.16-1.08 0.2-1.64 0.75-10.73-7.38-20.07-18.11-20.81 -10.72-0.74-20.04 7.38-20.79 18.11 -0.04 0.56-0.04 1.11-0.03 1.65l-27.29-1.9c0.08-0.54 0.16-1.08 0.2-1.64 0.75-10.73-7.38-20.07-18.12-20.81 -10.72-0.74-20.05 7.38-20.79 18.11 -0.04 0.56-0.04 1.11-0.03 1.65l-2.14-0.15 -7.55-0.52 2.84-18.67 8.69-12.1 6.13-6.67 9.81-19.47 12.17-4.6 29.75 2.07 19.83 26.41 26.83 9.15L1011.81 504.69zM933.97 455.45l-7.19-0.31 -9.7 3.17 -7.95 16.53 23.38 1.62L933.97 455.45zM965.23 478.73l-16.22-22.05 -9.65-0.86 -1.46 21.01L965.23 478.73zM980.51 503.84c-7.1-0.49-13.28 4.89-13.78 12 -0.49 7.1 4.88 13.29 11.99 13.78 7.12 0.49 13.31-4.89 13.8-11.99C993.01 510.53 987.63 504.34 980.51 503.84zM1445.63 498.07c-5.55 0.1-9.98 4.7-9.88 10.24 0.1 5.54 4.7 9.96 10.25 9.86 5.54-0.1 9.96-4.69 9.86-10.23C1455.75 502.4 1451.16 497.96 1445.63 498.07zM1468.48 509l-5.89 0.11 -1.67 0.03c0.03-0.43 0.05-0.85 0.04-1.29 -0.15-8.37-7.08-15.05-15.43-14.9 -8.37 0.15-15.05 7.08-14.9 15.45 0.01 0.43 0.05 0.86 0.09 1.28l-21.28 0.39c0.03-0.43 0.05-0.85 0.04-1.29 -0.15-8.37-7.07-15.05-15.43-14.9 -8.37 0.15-15.05 7.08-14.9 15.45 0.01 0.44 0.04 0.86 0.09 1.28l-0.79 0.02 -9.44 0.17 0.78-12.39 9.49-12.59 21.21-6.05 16.46-19.73 23.19-0.42 9.27 4.06 6.85 15.51 4.49 5.43 6.27 9.75L1468.48 509zM1428.32 479.72l-0.3-16.38 -7.53 0.28 -13.48 16.49L1428.32 479.72zM1450.76 479.31l-5.52-13.16 -7.41-2.85 -5.6-0.04 0.3 16.38L1450.76 479.31zM1394.14 499.01c-5.55 0.1-9.98 4.7-9.88 10.24 0.1 5.54 4.7 9.96 10.25 9.86 5.54-0.1 9.96-4.69 9.86-10.23C1404.27 503.34 1399.68 498.9 1394.14 499.01zM1032.4 170.79l6 0.66 7.82-13.68 -10.76 4.4L1032.4 170.79zM1051.84 139.99c-1.45 0.22-5.61 1.98-10.79 4.38l-28.45-13.34 -4.43 6.43 18.4 13.9c-9.39 4.65-17.74 8.96-17.74 8.96l-8.52-6.1 -4.49 0.88 13.62 13.95c-0.53 0.39 56.67-21.11 56.67-21.11l2.41-3.42 -0.19-3.53C1068.33 140.98 1054.81 139.54 1051.84 139.99z" fill="#0B2558"/>
  <path d="M2180.66 457.47c0 7.81-8.31 10.73-8.31 10.73l-8.93 0 -39.73 0c0 0-12.08-17.86 1.43-18.53 0 0-8.14-9.73 8.18-13.34 6.49-1.44 7.73 1.91 7.73 1.91s-0.8-8.78 10.44-8.78c10.5 0 15.69 1.68 12.72 12.07C2163.23 444.87 2180.66 431.15 2180.66 457.47zM1944.64 371.23c0 0 4.89-11.47-8.36-16.55 -13.25-5.07-16.67 12.05-16.67 12.05s-19.22-9.73-25.63 12.49c-3.09 10.73 11.9 15.14 11.9 15.14s-9.1 9.36-4.55 18.51c4.55 9.15 21.89 4.82 21.89 4.82s0.43 22.53-1.99 30.78c-2.42 8.25-7.55 12.75-7.55 12.75l35.15 0.51c0 0-9.96-4.45-13.35-15.85 -1.83-6.15 0-27.9 0-27.9s5.96 4.99 12.4 0.49c6.43-4.5-0.35-10.66-0.35-10.66s15.69-6.59 15.69-21.59C1963.21 371.23 1944.64 371.23 1944.64 371.23zM485.24 422.41c1.67-5.82-1.24-6.76-7.12-6.76 -6.3 0-5.85 4.92-5.85 4.92s-0.7-1.87-4.33-1.07c-9.14 2.02-4.58 7.47-4.58 7.47 -7.56 0.37-0.8 10.38-0.8 10.38l22.25 0h5c0 0 4.65-1.63 4.65-6.01C494.46 416.59 484.7 424.28 485.24 422.41zM405.32 359.27c0 0 3.42-8.03-5.85-11.58 -9.28-3.55-11.67 8.43-11.67 8.43s-13.45-6.81-17.94 8.74c-2.17 7.51 8.33 10.6 8.33 10.6s-6.37 6.56-3.19 12.96c3.19 6.4 15.32 3.37 15.32 3.37s0.3 15.77-1.4 21.55c-1.7 5.78-5.28 8.92-5.28 8.92l24.61 0.36c0 0-6.97-3.12-9.34-11.1 -1.28-4.3 0-19.53 0-19.53s4.17 3.49 8.68 0.34c4.5-3.15-0.24-7.46-0.24-7.46s10.98-4.61 10.98-15.11C418.33 359.27 405.32 359.27 405.32 359.27zM2000.33 383.54l0 72.07 90.79 0 0-72.07 -45.39-37.1L2000.33 383.54zM265.08 410.7l0 53.77 85.64 0 0-53.77 -42.82-27.68L265.08 410.7zM775.35 378.14l-16.15 0 -8.33 8.33h-2.82l0-25.1 -12.99 0 0 25.1h-3.96l0-36.45 -18.72 0 0 30.79h-9.49l-3.89 6.4h-0.56l0-20.03 -9.87 0 0 21.97h-2.78l0-36.45 -11.39 0 0 37.19h-2.06l0-13.08h-6.43l0-6.95 -6.01 0 0 27.11h-4.58l-3.68-4.61 -17.21 14.45 25.47 0v0.14l58.64 0v4.3l49.57 0 -0.1-4.18 30.12 0v-13.71l-22.77-6.89V378.14z" fill="#A3BBE2"/>
  <path d="M2013.19 407.45l22.69 0 0 22.67 -22.69 0V407.45zM2044.75 407.45l0 48.16 22.85 0 0-48.16L2044.75 407.45zM322.9 445.45l16.93 0 0-16.91 -16.93 0L322.9 445.45zM275.97 445.45h16.93l0-16.91 -16.93 0L275.97 445.45zM299.38 464.47l17.04 0 0-35.93 -17.04 0L299.38 464.47z" fill="#FFF"/>
</svg>
